<?xml version="1.0" encoding="UTF-8"?>
<svg xmlns="http://www.w3.org/2000/svg" version="1.1" viewBox="0 0 1079 1080">
  <defs>
    <style>
      .cls-1 {
        fill: #fff;
      }

      .cls-2 {
        fill: #131dd6;
      }
    </style>
  </defs>
  <!-- Generator: Adobe Illustrator 28.6.0, SVG Export Plug-In . SVG Version: 1.2.0 Build 709)  -->
  <g>
    <g id="Calque_1">
      <g id="Calque_1-2" data-name="Calque_1">
        <circle class="cls-2" cx="539.5" cy="540" r="540"/>
        <path class="cls-1" d="M820.7,412.3c-14-40.3-37.4-78.1-67.6-109.2-29.2-30.1-64.8-54.1-103.3-69.5v-19.3c0-61.5-50.1-111.5-111.7-111.5s-111.7,50-111.7,111.5v20.4c-37.8,15.6-72.9,39.5-101.6,69.5-29.7,31-52.8,68.4-66.6,108.1-10.9,31.4-16.5,64.3-16.5,97.9s0,1.1,0,1.8c.2,32.9,5.7,65.3,16.4,96.1,14.1,40.4,37.6,78.3,68,109.6,29.9,30.7,66.3,54.9,105.5,70.1l53.2,104.9h0l37.7,74.4c3.2,6.3,9.6,10.2,16.6,10.2h0c7.1,0,13.5-4,16.7-10.4l36.9-74.5,51.5-103.7c39.9-15.1,76.9-39.3,107.2-70.1,30.9-31.4,54.7-69.7,69-110.6,2-5.7,1.1-12-2.4-17-3.5-4.9-9.2-7.9-15.2-7.9h-171.9c-10.3,0-18.7,8.4-18.7,18.7v160.4l-47.8,103.2h-51.5l-49.4-103.2v-232.1h354.6c9.9,0,18.1-7.7,18.6-17.6v-2.4c0-33.5-5.5-66.5-16.5-97.8h.5ZM445.2,437.1h186c10.3,0,18.7-8.4,18.7-18.7v-144.1c29.7,14,57.2,34,79.8,58.3,24.8,26.5,44.1,58.3,55.8,92,7.6,22,12.3,44.9,13.8,68.2h-354.1c-10.3,0-18.7,8.4-18.7,18.7v233.3c-29.1-14.1-55.9-34.1-78.1-58.1-24.3-26.3-43.3-57.7-54.8-90.9-9.4-27-14.2-55.4-14.4-84.4v-1.2c0-29.3,4.8-58.1,14.4-85.5,11.6-33.2,30.5-64.6,54.8-90.9,22.2-24,49.1-43.9,78.1-58.1v142.9c0,10.3,8.4,18.7,18.7,18.7v-.2ZM463.9,399.7v-185.5c0-40.9,33.3-74.2,74.3-74.2s74.3,33.3,74.3,74.2v185.5h-148.7.1ZM775.3,620.5c-12.8,27.3-30.2,52-51.8,73.6s-46.4,39-73.6,51.8v-125.5h125.5-.1Z"/>
      </g>
    </g>
  </g>
</svg>